<svg xmlns="http://www.w3.org/2000/svg" viewBox="0 0 69.242 161.003"><defs><style>.a{fill:#ffe9ba;}.b{fill:#f0a8be;}</style></defs><path class="a" d="M27,50.138,50.9,53.5V36.661a7.508,7.508,0,0,1,15,0V91.237a11.207,11.207,0,0,1-9,10.8v40.518H17.9V102.037C12.748,100.9,3.24,96.511,3.24,91.237l.808-20.4C4.048,61.267,17,50.138,27,50.138Z" transform="translate(0.575 -7.407)"/><path d="M51.034,134.834H9.876a2.719,2.719,0,0,1-2.758-2.676L5.8,91.65c-7.881-.427-11.208-5.871-11.208-11.23L-7.173,62.985C-7.173,52.6,8,41.019,18.7,41.019l24.063,5.489V26.434a9.659,9.659,0,0,1,19.31,0V84.342a12.937,12.937,0,0,1-8.275,12.014v35.8A2.721,2.721,0,0,1,51.034,134.834Zm-38.4-5.353H48.276V94.4A2.7,2.7,0,0,1,50.417,91.8a7.673,7.673,0,0,0,6.134-7.454V26.434a4.14,4.14,0,0,0-8.275,0v22.75a2.719,2.719,0,0,1-2.758,2.676L18.7,46.372c-7.657,0-20.352,9.183-20.352,16.613L.11,80.42c0,3.587,1.793,6.046,9.067,6.67A2.7,2.7,0,0,1,11.319,89.7l1.317,39.783Z" transform="translate(7.173 3.188)"/><path class="a" d="M54.753,55.12V10.6a7.044,7.044,0,0,0-6.9-7.181h0a7.044,7.044,0,0,0-6.9,7.181V55.121" transform="translate(-1.254 7.875)"/><path class="a" d="M54.753,57.993v-47c0-4.186-3.088-7.58-6.9-7.58h0c-3.808,0-6.9,3.394-6.9,7.58v47" transform="translate(-28.731 7.875)"/><path class="a" d="M54.753,63.536V11.764c0-4.611-3.088-8.35-6.9-8.35h0c-3.808,0-6.9,3.739-6.9,8.35V63.537" transform="translate(-14.992 -0.541)"/><path d="M54.1,57.453A2.818,2.818,0,0,1,51.34,54.58V10.054a4.141,4.141,0,1,0-8.275,0V54.58a2.76,2.76,0,1,1-5.516,0V10.054a9.662,9.662,0,1,1,19.308,0V54.58A2.818,2.818,0,0,1,54.1,57.453Z" transform="translate(-0.599 8.416)"/><path d="M54.1,57.453A2.818,2.818,0,0,1,51.34,54.58V10.054a4.141,4.141,0,1,0-8.275,0V54.58a2.76,2.76,0,1,1-5.516,0V10.054a9.662,9.662,0,1,1,19.308,0V54.58A2.818,2.818,0,0,1,54.1,57.453Z" transform="translate(-28.076 8.416)"/><path d="M54.1,65.869a3.063,3.063,0,0,1-2.758-3.293V11.527c0-2.724-1.856-4.94-4.138-4.94s-4.138,2.216-4.138,4.94V62.575a3.063,3.063,0,0,1-2.758,3.293,3.063,3.063,0,0,1-2.758-3.293V11.527C37.547,5.173,41.879,0,47.2,0s9.655,5.173,9.655,11.527V62.575A3.063,3.063,0,0,1,54.1,65.869Z" transform="translate(-14.337)"/><path class="b" d="M0,0H48.224V40.217H0Z" transform="translate(11.974 117.913)"/><path d="M61.479,185.909H13.254a2.947,2.947,0,0,1-3.014-2.872V142.819a2.947,2.947,0,0,1,3.014-2.872H61.478a2.947,2.947,0,0,1,3.014,2.872v40.217A2.945,2.945,0,0,1,61.479,185.909Zm-45.21-5.746h42.2V145.692h-42.2Z" transform="translate(-1.28 -24.906)"/></svg>