<svg xmlns="http://www.w3.org/2000/svg" viewBox="0 0 63.296 138.645"><defs><style>.a{fill:#ffe9ba;}.b{fill:#75a8ed;}</style></defs><g transform="translate(0)"><path class="a" d="M158.544,46.988l-24.007-3.014V48.5a7.535,7.535,0,1,0-15.07,0V86.579A11.635,11.635,0,0,0,128.51,97.91v24.429h39.182V97.91a11.637,11.637,0,0,0,9.042-11.331v-21.4A18.191,18.191,0,0,0,158.544,46.988Z" transform="translate(-116.453 -37.946)"/><path d="M167.292,124.953H128.11a3.015,3.015,0,0,1-3.014-3.014V99.707a14.561,14.561,0,0,1-9.042-13.529V46.589a3,3,0,0,1,.473-1.623,10.545,10.545,0,0,1,17.456-4.4,2.891,2.891,0,0,1,.531.019l23.829,2.992a21.226,21.226,0,0,1,21.006,21.2v21.4a14.564,14.564,0,0,1-9.042,13.529V121.94A3.017,3.017,0,0,1,167.292,124.953Zm-36.168-6.027h33.155V97.511a3.013,3.013,0,0,1,2.34-2.937,8.58,8.58,0,0,0,6.7-8.394V64.78A15.192,15.192,0,0,0,158.147,49.6a2.974,2.974,0,0,1-.375-.024l-20.619-2.589v1.1a3.014,3.014,0,1,1-6.027,0,4.521,4.521,0,1,0-9.042,0V86.18a8.576,8.576,0,0,0,6.7,8.394,3.014,3.014,0,0,1,2.34,2.937v21.415Z" transform="translate(-116.054 -37.547)"/><path d="M136.134,62.058a3.015,3.015,0,0,1-3.014-3.014V43.974a3.014,3.014,0,1,1,6.027,0v15.07A3.014,3.014,0,0,1,136.134,62.058Z" transform="translate(-118.05 -37.946)"/><path d="M153.2,62.857a3.015,3.015,0,0,1-3.014-3.014V50.8a3.014,3.014,0,1,1,6.027,0v9.042A3.015,3.015,0,0,1,153.2,62.857Z" transform="translate(-120.047 -38.745)"/><path d="M166.854,62.857a3.015,3.015,0,0,1-3.014-3.014V50.8a3.014,3.014,0,1,1,6.027,0v9.042A3.014,3.014,0,0,1,166.854,62.857Z" transform="translate(-121.644 -38.745)"/><path class="b" d="M0,0H48.224V51.239H0Z" transform="translate(9.041 84.393)"/><path d="M174.119,186.973H125.895a3.015,3.015,0,0,1-3.014-3.014V132.721a3.015,3.015,0,0,1,3.014-3.014h48.224a3.015,3.015,0,0,1,3.014,3.014V183.96A3.015,3.015,0,0,1,174.119,186.973Zm-45.21-6.028h42.2v-45.21h-42.2Z" transform="translate(-116.853 -48.328)"/></g></svg>