<svg xmlns="http://www.w3.org/2000/svg" viewBox="0 0 63.296 160.465"><defs><style>.a{fill:#ffe9ba;}.b{fill:#addbae;}</style></defs><path class="a" d="M28.429,47.237H52.436V7.413C52.436,3.585,55.81.48,59.971.48s7.535,3.1,7.535,6.933V83.666c0,5.092-3.868,9.335-9.042,10.426V133.21H19.282V94.092C14.108,93,10.24,88.757,10.24,83.666V63.974C10.24,54.731,18.384,47.237,28.429,47.237Z" transform="translate(-7.226 2.294)"/><path d="M58.065,119.094l-39.182,16.25a2.9,2.9,0,0,1-3.014-2.773v-37.1A13.442,13.442,0,0,1,6.827,83.025V63.334c0-10.759,9.512-19.511,21.2-19.511H49.024V6.773c0-5.351,4.734-9.707,10.549-9.707S70.123,1.422,70.123,6.773V83.026A13.444,13.444,0,0,1,61.08,95.474v37.1C61.08,134.1,59.729,119.094,58.065,119.094ZM21.9,129.8H55.051V93.453a2.833,2.833,0,0,1,2.34-2.7,8.068,8.068,0,0,0,6.7-7.724V6.773a4.537,4.537,0,0,0-9.042,0V46.6a2.9,2.9,0,0,1-3.014,2.773H28.029c-8.367,0-15.174,6.265-15.174,13.964V83.024a8.065,8.065,0,0,0,6.7,7.724,2.834,2.834,0,0,1,2.34,2.7V129.8Z" transform="translate(-6.827 2.934)"/><path class="a" d="M16.126,50.567,15.138,7.3A7.646,7.646,0,0,0,7.489.159h0A6.874,6.874,0,0,0,.159,6.979l.988,43.271" transform="translate(15.009 8.848) rotate(-16)"/><path d="M20.145,53.091a3.059,3.059,0,0,1-3.059-2.855L15.2,10.09a4.593,4.593,0,0,0-4.589-4.283A4.129,4.129,0,0,0,6.214,9.9L7.2,53.169A2.75,2.75,0,0,1,4.271,55.9a3.059,3.059,0,0,1-3.059-2.855L.223,9.771C.1,4.385,4.7.1,10.484.223s10.586,4.608,10.709,9.994l1.884,40.147A2.75,2.75,0,0,1,20.145,53.091Z" transform="translate(11.281 6.946) rotate(-16)"/><path d="M26.908,71.893a2.9,2.9,0,0,1-3.014-2.773V60.8a3.024,3.024,0,0,1,6.027,0v8.32A2.9,2.9,0,0,1,26.908,71.893Z" transform="translate(-8.824 -8.496)"/><path class="b" d="M0,0H48.224V38.827H0Z" transform="translate(6.027 118.865)"/><path d="M61.479,184.32H13.254a2.9,2.9,0,0,1-3.014-2.773V142.72a2.9,2.9,0,0,1,3.014-2.773H61.478a2.9,2.9,0,0,1,3.014,2.773v38.827A2.9,2.9,0,0,1,61.479,184.32Zm-45.21-5.547h42.2v-33.28h-42.2Z" transform="translate(-7.226 -23.855)"/></svg>